<svg id="Laag_1" data-name="Laag 1" xmlns="http://www.w3.org/2000/svg" viewBox="0 0 24 24"><defs><style>.cls-1{fill:#e3e3e3;}</style></defs><title>hide_LightGrey</title><path class="cls-1" d="M20.2,8.2,18.76,9.65a9.16,9.16,0,0,1,2,2.32.94.94,0,0,1,0,1.08,9.09,9.09,0,0,1-8.71,4.53c-.41,0-.8,0-1.18-.06L9.11,19.3a14.27,14.27,0,0,0,3,.3A10.94,10.94,0,0,0,22.5,14.1a2.83,2.83,0,0,0,0-3.19A11.26,11.26,0,0,0,20.2,8.2Z"/><path class="cls-1" d="M6.9,18.61,8.47,17a9.05,9.05,0,0,1-5.11-4,.94.94,0,0,1,0-1.08c1-1.69,3.52-4.52,8.71-4.52A10.89,10.89,0,0,1,17,8.5L18.46,7a12.54,12.54,0,0,0-6.39-1.56c-6.18,0-9.2,3.44-10.44,5.49a2.83,2.83,0,0,0,0,3.19A11.09,11.09,0,0,0,6.9,18.61Z"/><path class="cls-1" d="M12.07,16.56q4,0,4-4c0-.07,0-.14,0-.2l-4.23,4.23Z"/><path class="cls-1" d="M12.07,8.46a3.7,3.7,0,0,0-3.85,2.8,3.7,3.7,0,0,0,1.49,4.52l1.46-1.47a1.85,1.85,0,0,1-1.1-2.11,1.85,1.85,0,0,1,1.68-1.69,1.85,1.85,0,0,1,2.12,1.09l1.46-1.47A3.83,3.83,0,0,0,12.07,8.46Z"/><polygon class="cls-1" points="4.93 20.61 21.13 4.41 18.26 4.41 2.07 20.61 4.93 20.61"/></svg>