<svg id="Laag_1" data-name="Laag 1" xmlns="http://www.w3.org/2000/svg" viewBox="0 0 24 24"><defs><style>.cls-1{fill:#fff;}</style></defs><title>Home</title><path class="cls-1" d="M17.76,18.74a.85.85,0,0,1-1,1H14.88V15.86A1.7,1.7,0,0,0,13,13.94H11a1.7,1.7,0,0,0-1.92,1.92V19.7H7.2a.85.85,0,0,1-1-1V9.23l5.12-4.65a.85.85,0,0,1,1.3,0l5.11,4.64ZM11,19.7V15.86H13V19.7ZM21.6,10.12l-7.66-7a2.55,2.55,0,0,0-3.89,0l-7.66,7v2.59L4.32,11v7.77A2.55,2.55,0,0,0,7.2,21.62h9.6a2.55,2.55,0,0,0,2.88-2.88V11l1.92,1.74Z"/></svg>