<svg id="Laag_1" data-name="Laag 1" xmlns="http://www.w3.org/2000/svg" viewBox="0 0 24 24"><defs><style>.cls-1{fill:#e3e3e3;}</style></defs><title>reveal_LightGrey</title><path class="cls-1" d="M12,14.34a1.73,1.73,0,0,1-2-2,1.73,1.73,0,0,1,2-2,1.73,1.73,0,0,1,2,2A1.74,1.74,0,0,1,12,14.34Zm0-5.88q-3.92,0-3.92,3.92T12,16.3q3.92,0,3.92-3.92T12,8.46Zm8.43,4.44A8.8,8.8,0,0,1,12,17.28,8.8,8.8,0,0,1,3.56,12.9a.91.91,0,0,1,0-1C4.55,10.22,7,7.48,12,7.48s7.44,2.74,8.43,4.37A.91.91,0,0,1,20.42,12.9Zm1.68-2.06C20.89,8.85,18,5.52,12,5.52S3.09,8.85,1.88,10.84a2.75,2.75,0,0,0,0,3.09A10.58,10.58,0,0,0,12,19.24a10.58,10.58,0,0,0,10.1-5.32A2.75,2.75,0,0,0,22.1,10.84Z"/></svg>